<?xml version="1.0" encoding="utf-8"?>
<!-- Generator: Adobe Illustrator 26.0.0, SVG Export Plug-In . SVG Version: 6.00 Build 0)  -->
<svg version="1.1" id="Layer_1" xmlns="http://www.w3.org/2000/svg" xmlns:xlink="http://www.w3.org/1999/xlink" x="0px" y="0px"
	 viewBox="0 0 1222.97 2466.88" style="enable-background:new 0 0 1222.97 2466.88;" xml:space="preserve">
<style type="text/css">
	.st0{fill:#FFFFFF;}
	.st1{fill:url(#SVGID_1_);}
	.st2{opacity:0.1;}
	.st3{fill:url(#SVGID_00000176738305201141091660000011151590252045848197_);}
	.st4{fill:url(#SVGID_00000173130464423632093920000001364839913454382237_);}
	.st5{fill:url(#SVGID_00000117663071267423336680000016644272237621272494_);}
	.st6{fill:url(#SVGID_00000010993345881476347730000002991265148494388619_);}
	.st7{fill:url(#SVGID_00000152265668707946078600000004665600478645594542_);}
	.st8{fill:url(#SVGID_00000065782961700416310120000016388461962435252872_);}
	.st9{fill:url(#SVGID_00000160152739169643847930000001851672665512693147_);}
	.st10{fill:url(#SVGID_00000075136912427754075950000001719086617375213968_);}
	.st11{fill:url(#SVGID_00000070080332017238296760000001828678538846851506_);}
</style>
<path class="st0" d="M1210.97,2466.88H12c-6.6,0-12-5.4-12-12V12C0,5.4,5.4,0,12,0h1198.97c6.6,0,12,5.4,12,12v2442.88
	C1222.97,2461.48,1217.57,2466.88,1210.97,2466.88z"/>
<linearGradient id="SVGID_1_" gradientUnits="userSpaceOnUse" x1="0" y1="2273.7949" x2="1222.9664" y2="2273.7949">
	<stop  offset="0" style="stop-color:#E011B3"/>
	<stop  offset="1" style="stop-color:#430634"/>
</linearGradient>
<path class="st1" d="M1202.02,2255.08c-29.35,25.82-59.53,50.52-93.74,69.82c-19.17,10.82-39.23,19.28-61.25,22.13
	c-35.65,4.62-64.98-8.73-90.45-32.47c-20.16-18.78-35.54-41.46-51.44-63.71c-20.05-28.07-39.89-56.31-60.56-83.92
	c-10.18-13.59-22.41-25.52-37.31-34.25c-15.98-9.37-32.89-11.52-50.63-6.28c-16.87,4.98-30.71,15.04-43.43,26.77
	c-23.2,21.42-41.22,47.04-58.61,73.11c-22.5,33.71-44.36,67.87-67.21,101.34c-12.35,18.08-26.58,34.79-44.56,47.8
	c-22.99,16.62-47.43,18.66-73.18,7.23c-25.18-11.17-45.17-29.25-63.82-48.86c-18.46-19.41-36.16-39.54-54.55-59.02
	c-13.35-14.15-27.61-27.3-44.82-36.9c-19.42-10.84-38.75-10.85-57.21,1.32c-12.87,8.49-24.93,18.24-36.97,27.91
	c-14.4,11.57-28.01,24.19-44.99,32.1c-16.6,7.72-33.06,7.57-47.16-4.54c-10.77-9.25-20.89-19.73-29.38-31.09
	c-23.36-31.3-39.88-66.54-55.72-102.02c-11.97-26.81-23.38-53.87-35.03-80.83c0,117.77,0,268.39,0,386.16
	c407.66,0,815.31,0,1222.97,0c0-65.68,0-164.21,0-229.89C1215.98,2243.02,1208.95,2248.99,1202.02,2255.08z"/>
<g class="st2">
	
		<linearGradient id="SVGID_00000085227284330985926640000011884029269833947555_" gradientUnits="userSpaceOnUse" x1="-45.2889" y1="458.5707" x2="-45.2889" y2="1184.6198">
		<stop  offset="0" style="stop-color:#E011B3"/>
		<stop  offset="1" style="stop-color:#430634"/>
	</linearGradient>
	<path style="fill:url(#SVGID_00000085227284330985926640000011884029269833947555_);" d="M237.4,776.27
		c-0.9-11.1-2.73-22.2-4.6-33.25c-3.26-19.21-7.78-38.1-13.64-56.61c-7.84-24.79-17.86-48.68-30.18-71.71
		c-13.45-25.15-29.4-48.52-48.25-69.69c-17.86-20.05-37.7-38.17-60.24-53.13c-16.31-10.83-33.45-20.05-51.55-27.33
		c-6.12-2.46-12.11-6.15-19.1-5.97c-10.35-0.18-19.23,3.51-28.28,5.97c-26.8,7.28-52.19,16.51-76.34,27.33
		c-33.38,14.96-62.76,33.08-89.2,53.13c-27.91,21.17-51.53,44.54-71.44,69.69c-18.23,23.03-33.07,46.92-44.68,71.71
		c-8.67,18.51-15.37,37.4-20.19,56.61c-2.78,11.05-5.49,22.15-6.82,33.25c-1.08,9.01-3,18.04-2.59,27.17
		c0.44,9.76,0.24,19.54,0.06,29.32c-0.23,12.56,2.11,24.98,3.56,37.47c2.3,19.86,7.69,39.34,14.33,58.64
		c5.06,14.72,11.47,29.28,19.2,43.5c8.16,15.02,17.16,29.83,27.71,44.17c11.98,16.28,25.58,31.95,40.75,46.97
		c16.27,16.11,34.2,31.27,54.76,45.05c18.44,12.36,36.7,24.84,57.94,35.04c16.18,7.77,32.5,15.42,50.27,21.54
		c19.16,6.6,38.4,13.05,58.77,17.81c3.96,0.93,7.95,1.72,12.15,1.67c0.02,0,0.04,0,0.06,0c0.05,0,0.09,0,0.14,0
		c0.54,0.01,1.07-0.02,1.6-0.07c0.05,0,0.1,0,0.16-0.01c0,0,0-0.01,0-0.01c2.17-0.22,4.27-0.85,6.36-1.58
		c13.76-4.76,26.75-11.21,39.69-17.81c12-6.12,23.02-13.77,33.95-21.54c14.34-10.2,26.67-22.68,39.13-35.04
		c13.88-13.78,25.99-28.94,36.98-45.05c10.25-15.02,19.43-30.69,27.52-46.97c7.13-14.33,13.2-29.14,18.71-44.17
		c5.22-14.22,9.55-28.78,12.97-43.5c4.48-19.3,8.12-38.78,9.68-58.64c0.98-12.49,2.56-24.91,2.4-37.47
		c-0.12-9.77-0.26-19.55,0.04-29.32C239.43,794.31,238.13,785.28,237.4,776.27z"/>
	
		<linearGradient id="SVGID_00000067932754555133221090000000111720544997153465_" gradientUnits="userSpaceOnUse" x1="1151.9393" y1="868.6245" x2="1151.9393" y2="1406.0016">
		<stop  offset="0" style="stop-color:#E011B3"/>
		<stop  offset="1" style="stop-color:#430634"/>
	</linearGradient>
	<path style="fill:url(#SVGID_00000067932754555133221090000000111720544997153465_);" d="M1358.07,1132.19
		c-0.24-10.79-1.5-21.51-2.41-32.25c-1.46-17.27-4.76-34.13-9.04-50.87c-4.03-15.77-9.51-30.98-15.91-45.93
		c-7.19-16.8-16.19-32.53-26.31-47.69c-10.65-15.96-23.49-30.11-37.81-42.67c-20.73-18.18-44.46-31.54-71.19-38.89
		c-10.16-2.79-20.63-4.05-31.2-5.05c-4.13-0.39-8.21-0.18-12.26,0.07c-4.05-0.25-8.13-0.46-12.26-0.07
		c-10.57,1-21.05,2.26-31.2,5.05c-26.73,7.35-50.46,20.7-71.19,38.89c-14.32,12.56-27.16,26.7-37.81,42.67
		c-10.11,15.16-19.12,30.89-26.31,47.69c-6.4,14.95-11.89,30.16-15.91,45.93c-4.28,16.74-7.58,33.6-9.04,50.87
		c-0.91,10.75-2.16,21.46-2.41,32.25c-0.32,14.07,1.06,28.03,2.39,42.03c1.27,13.35,3.34,26.51,6.31,39.54
		c4.58,20.07,10.97,39.5,19.23,58.44c10.66,24.43,24.32,46.95,41.64,66.98c12.15,14.05,25.72,26.95,41.51,37.14
		c12.39,8,25.23,14.86,39.23,19.92c17.3,6.25,35.02,9.15,53.19,9.74c0.57,0.02,1.14,0.01,1.71,0.01c0.3,0.01,0.61,0,0.91,0.01
		c0.3,0,0.61,0,0.91-0.01c0.57,0,1.14,0.01,1.71-0.01c18.17-0.59,35.89-3.48,53.19-9.74c14-5.06,26.84-11.92,39.23-19.92
		c15.79-10.2,29.35-23.09,41.51-37.14c17.33-20.04,30.98-42.56,41.64-66.98c8.27-18.94,14.66-38.37,19.23-58.44
		c2.97-13.03,5.04-26.19,6.31-39.54C1357.01,1160.22,1358.39,1146.26,1358.07,1132.19z"/>
	
		<linearGradient id="SVGID_00000073710402932970416990000011547615784005184408_" gradientUnits="userSpaceOnUse" x1="290.7123" y1="1251.108" x2="290.7123" y2="1395.6179">
		<stop  offset="0" style="stop-color:#E011B3"/>
		<stop  offset="1" style="stop-color:#430634"/>
	</linearGradient>
	<path style="fill:url(#SVGID_00000073710402932970416990000011547615784005184408_);" d="M375.39,1323.18
		c0.55,16.59-5.79,30.04-15.98,42.34c-13.74,16.6-32.03,24.85-52.37,28.53c-24.57,4.45-47.78-0.67-68.71-14.3
		c-15.45-10.06-25.93-24.37-30.46-42.27c-4.81-19.02,0.02-36.48,11.44-52.06c13.2-18.01,31.6-27.48,53.12-32.03
		c5.99-1.27,12.17,0.03,17.93-2.28c24.25,1.71,46.66,7.57,64.71,25.58c10.07,10.04,16.33,21.59,19.59,35.2
		C375.59,1315.81,375.02,1319.65,375.39,1323.18z"/>
	
		<linearGradient id="SVGID_00000149341722671980462060000011474272915358556818_" gradientUnits="userSpaceOnUse" x1="805.2202" y1="402.1011" x2="805.2202" y2="561.3802">
		<stop  offset="0" style="stop-color:#E011B3"/>
		<stop  offset="1" style="stop-color:#430634"/>
	</linearGradient>
	<path style="fill:url(#SVGID_00000149341722671980462060000011474272915358556818_);" d="M877.95,481.2
		c0.99,12.91-1.76,24.74-7.04,35.73c-10.79,22.45-27.79,38-52.72,43.07c-20.96,4.26-39.59-1.47-56.22-14.77
		c-15.23-12.18-24.13-28.17-27.92-46.87c-4.92-24.29-0.02-47.02,14.69-66.92c10.53-14.25,24.55-24.24,42.38-27.78
		c17.77-3.52,34.56-1.2,50.15,8.58c14.83,9.31,25.29,22.17,31.46,38.44C876.49,460.61,879.15,470.87,877.95,481.2z"/>
	
		<linearGradient id="SVGID_00000141452420329408603260000001071958456346842000_" gradientUnits="userSpaceOnUse" x1="922.4246" y1="1707.777" x2="922.4246" y2="1866.9559">
		<stop  offset="0" style="stop-color:#E011B3"/>
		<stop  offset="1" style="stop-color:#430634"/>
	</linearGradient>
	<path style="fill:url(#SVGID_00000141452420329408603260000001071958456346842000_);" d="M995.17,1787.28
		c0.96,12.67-1.64,24.33-6.89,35.09c-11.68,23.88-29.56,39.99-56.97,43.9c-19.94,2.84-36.87-3.2-52.29-15.41
		c-15.31-12.12-24.07-28.24-27.81-46.92c-4.81-24.03,0.06-46.55,14.5-66.37c11.05-15.17,26.03-25.52,44.72-28.67
		c16.96-2.86,33.35-0.35,48.28,9.27c14.71,9.48,25.23,22.25,31.34,38.55C993.77,1766.67,996.32,1776.94,995.17,1787.28z"/>
	
		<linearGradient id="SVGID_00000010303652309791005900000010918863858348201395_" gradientUnits="userSpaceOnUse" x1="801.3322" y1="1025.15" x2="801.3322" y2="1108.8414">
		<stop  offset="0" style="stop-color:#E011B3"/>
		<stop  offset="1" style="stop-color:#430634"/>
	</linearGradient>
	<path style="fill:url(#SVGID_00000010303652309791005900000010918863858348201395_);" d="M849.45,1067.33
		c1.36,15.98-14.03,31.84-25.4,36.49c-6.26,2.56-12.75,4.53-19.33,4.92c-11.44,0.69-22.42-2.18-32.05-8.48
		c-9.7-6.35-16.27-15.03-18.77-26.85c-1.82-8.62-0.3-16.61,3.64-23.76c8.31-15.05,21.59-22.7,38.82-24.24
		c13.26-1.19,25.26,1.57,35.97,9.24C843.31,1042.52,849.93,1052.95,849.45,1067.33z"/>
	
		<linearGradient id="SVGID_00000061448717539820827550000017222454167229450173_" gradientUnits="userSpaceOnUse" x1="507.0113" y1="1783.6171" x2="507.0113" y2="1867.3308">
		<stop  offset="0" style="stop-color:#E011B3"/>
		<stop  offset="1" style="stop-color:#430634"/>
	</linearGradient>
	<path style="fill:url(#SVGID_00000061448717539820827550000017222454167229450173_);" d="M555.2,1823.16
		c0,17.18-7.75,27.53-19.33,35.59c-7.64,5.32-16.49,7.82-25.5,8.45c-11.42,0.8-22.42-2.17-32.04-8.48
		c-9.69-6.35-16.27-15.03-18.76-26.85c-1.82-8.62-0.3-16.61,3.65-23.76c8.31-15.05,21.59-22.69,38.82-24.23
		c13.26-1.19,25.26,1.57,35.97,9.24C548.98,1800.98,555.6,1811.42,555.2,1823.16z"/>
	
		<linearGradient id="SVGID_00000175312057050940667840000009891964992730634885_" gradientUnits="userSpaceOnUse" x1="743.7751" y1="133.7686" x2="743.7751" y2="214.6392">
		<stop  offset="0" style="stop-color:#E011B3"/>
		<stop  offset="1" style="stop-color:#430634"/>
	</linearGradient>
	<path style="fill:url(#SVGID_00000175312057050940667840000009891964992730634885_);" d="M786.91,174.04
		c0.9,19.3-14.51,35.84-34.09,39.62c-17.91,3.46-32.9-2.34-43.57-16.28c-10.58-13.83-11.62-28.12-2.2-43.59
		c7.24-11.9,18.14-18.56,32.4-19.76c10.45-0.89,20.38,0.33,28.8,6.57C780.21,149.45,787.38,157.87,786.91,174.04z"/>
	
		<linearGradient id="SVGID_00000141427318423489043740000007105547856776114063_" gradientUnits="userSpaceOnUse" x1="441.9414" y1="227.6004" x2="441.9414" y2="308.4574">
		<stop  offset="0" style="stop-color:#E011B3"/>
		<stop  offset="1" style="stop-color:#430634"/>
	</linearGradient>
	<path style="fill:url(#SVGID_00000141427318423489043740000007105547856776114063_);" d="M484.75,267.44
		c1.01,18.94-13.84,36.17-33.89,40.08c-18,3.51-32.19-3.02-43.84-16.07c-9.5-10.64-10.62-30.44-2.6-43.2
		c7.54-12.02,18.24-19.1,32.75-20.38c10.44-0.92,20.28,0.4,28.84,6.47C477.4,242.41,485.65,252.59,484.75,267.44z"/>
</g>
</svg>
